<?xml version="1.0" standalone="no"?><!DOCTYPE svg PUBLIC "-//W3C//DTD SVG 1.1//EN"
  "http://www.w3.org/Graphics/SVG/1.1/DTD/svg11.dtd">
<svg t="1533192771297" class="icon" style="" viewBox="0 0 1934 1024" version="1.1" xmlns="http://www.w3.org/2000/svg"
     p-id="6989" xmlns:xlink="http://www.w3.org/1999/xlink" width="90.65625" height="48">
  <defs>
    <style type="text/css"></style>
  </defs>
  <path
    d="M0 420.272587h449.953747v-294.706547H68.308768V2.315551h967.795251L882.435605 125.250283H572.888478v294.706547h260.920547v87.569946l-42.100936 35.364785H572.888478v481.108439H449.953747V543.312571H0z"
    fill="#423030" p-id="6990"></path>
  <path
    d="M1107.991366 444.164868V280.181725L792.023846 542.3653l-78.623497-92.201049L1253.765855 0l182.402302 5.578374-207.452359 173.245349V444.164868h-120.724432zM1035.472505 900.117998l371.014493-108.515161V657.195601h120.724432v134.407236l371.751259 108.93617v123.460993l-432.166101-125.250283-431.324083 125.250283V900.117998z"
    fill="#423030" p-id="6991"></path>
  <path
    d="M1718.560181 805.285641V624.146367h-503.527187v181.139274h-120.724432V504.57971h744.976051v300.705931h-120.724432zM1486.163018 171.982321V10.209477h119.566656v315.54651h273.866585l55.046973-28.523383v149.247815H1486.163018V171.982321z"
    fill="#423030" p-id="6992"></path>
  <path d="M1909.172166 9.89372l-542.154795 409.326344-5.578374-148.616302L1706.561414 9.89372h202.610752z"
        fill="#FF1F1F" p-id="6993"></path>
</svg>
